<svg width="42" height="37" viewBox="0 0 42 37" fill="none" xmlns="http://www.w3.org/2000/svg">
<path d="M1.97203 13.6562L3.89724 12.5267V16.7878H37.2676V12.5652L39.1671 13.6562C39.4604 13.8096 39.8017 13.8438 40.1196 13.7515C40.4376 13.6593 40.7076 13.4478 40.8732 13.1612C41.0389 12.8746 41.0874 12.5351 41.0086 12.2135C40.9299 11.892 40.7299 11.6133 40.4506 11.4358L20.5824 0L0.688552 11.4358C0.535171 11.516 0.399604 11.6264 0.290009 11.7604C0.180413 11.8944 0.0990535 12.0492 0.0508241 12.2154C0.00259463 12.3817 -0.0115077 12.5559 0.00936527 12.7278C0.0302382 12.8996 0.0856554 13.0655 0.172283 13.2153C0.25891 13.3652 0.374957 13.496 0.513443 13.5998C0.651928 13.7037 0.809991 13.7785 0.978121 13.8196C1.14625 13.8608 1.32098 13.8676 1.49178 13.8395C1.66259 13.8114 1.82594 13.749 1.97203 13.6562ZM20.3899 5.37776C20.546 5.28764 20.723 5.24019 20.9033 5.24019C21.0835 5.24019 21.2606 5.28764 21.4167 5.37776L30.0416 10.3705H25.9088L20.9033 7.49549L15.8977 10.3705H11.7778L20.3899 5.37776Z" fill="url(#paint0_linear)"/>
<path d="M39.6401 30.9058H38.5491V29.8148C38.5491 29.4234 38.3936 29.048 38.1168 28.7712C37.84 28.4943 37.4646 28.3388 37.0731 28.3388H33.4152V18.8796H28.2813V28.3388H23.1475V18.8796H18.0136V28.3388H12.8797V18.8796H7.74577V28.3388H4.08786C3.69641 28.3388 3.32098 28.4943 3.04418 28.7712C2.76738 29.048 2.61187 29.4234 2.61187 29.8148V30.9058H1.52092C1.12946 30.9058 0.754034 31.0613 0.477231 31.3381C0.200428 31.6149 0.0449219 31.9903 0.0449219 32.3818V36.0397H41.1161V32.3818C41.1161 31.9903 40.9606 31.6149 40.6838 31.3381C40.407 31.0613 40.0316 30.9058 39.6401 30.9058Z" fill="url(#paint1_linear)"/>
<defs>
<linearGradient id="paint0_linear" x1="258.599" y1="-31.3445" x2="250.508" y2="45.3818" gradientUnits="userSpaceOnUse">
<stop offset="0.00169573" stop-color="#8D58E0"/>
<stop offset="0.525175" stop-color="#C92ACB"/>
<stop offset="0.686472" stop-color="#6438A9"/>
<stop offset="1" stop-color="#FF00B8"/>
</linearGradient>
<linearGradient id="paint1_linear" x1="258.806" y1="-13.1598" x2="250.361" y2="65.2301" gradientUnits="userSpaceOnUse">
<stop offset="0.00169573" stop-color="#8D58E0"/>
<stop offset="0.525175" stop-color="#C92ACB"/>
<stop offset="0.686472" stop-color="#6438A9"/>
<stop offset="1" stop-color="#FF00B8"/>
</linearGradient>
</defs>
</svg>
